<svg width="1129" height="1098" viewBox="0 0 1129 1098" fill="none" xmlns="http://www.w3.org/2000/svg">
<g id="Skull">
<path id="SkullBase" d="M156 294.707L100 341.207L83.5 357.207L72 381.707L66 411.707L53.5 459.207L38.5 515.707V564.707L28.5 601.207L17 634.207L24 663.207L38.5 681.707L58 685.207L78.5 688.707L83.5 694.707L67.5 710.207L61.5 726.707L52.5 734.707L28 765.707L24 792.707L0.5 840.207V851.707L6.5 861.707H24H58L94 869.207H127L165.5 876.207H199L243.5 889.207H257L293.5 906.207L305.5 911.207L327.5 906.207L352.5 918.207L401 926.207L424.5 932.207L444.5 936.707H464.5L479 940.707H493L487 883.707L493 849.707L503.5 793.707L529 749.707L569 724.707L623 714.207H684L747.5 724.707L786.5 735.207L806.5 757.707L830.5 807.707L816 861.707L778.5 932.207L747.5 1002.21C747.5 1002.21 711.5 1074.21 721.5 1087.52C732.205 1101.78 766.5 1095.21 766.5 1095.21L823 1084.71L870.5 1069.21L926.5 1035.71L1013.5 964.207L1066 891.707L1099 815.207L1118.5 724.707L1128 635.207V543.707L1106.5 434.207L1061 336.207L1004 257.707L1118.5 135.207L926.5 0.707275L839.5 135.207L733.5 100.707L608.5 81.7073L497.5 87.7073L372.5 111.207L284.5 148.207L231 195.707L186.5 259.207L156 294.707Z" stroke="black"/>
<path id="SkullDetails" d="M681 278.207L655 300.707L646.5 319.707L655 355.207L666.5 398.207V449.707M666.5 449.707V495.707L646.5 527.207L655 561.207L698 589.707L756.5 599.707L801 589.707M666.5 449.707H706.5L716.5 495.707L725 508.207H742.5L756.5 527.207L766.5 549.707H784L792.5 561.207L801 589.707M801 589.707L836.5 607.207L878 637.207L934 654.207L962.5 665.707L979.5 692.707" stroke="black"/>
<path id="SkullEyeL" d="M367.5 502.707V452.707L380.5 398.207L400.5 362.207L442 333.707H512L569 371.207L590.5 421.207L576.5 474.207L536.5 522.707L477.5 545.707L400.5 535.707L367.5 502.707Z" stroke="black"/>
<path id="SkullNose" d="M126 647.207L119.5 642.207L129 636.207L136 625.207L143 602.207L150.5 579.707L158.5 554.207L166.5 533.707L178.5 513.207L191 493.707L200 482.707L211 477.207L220 480.707L229.5 488.707L242 510.207L247.5 537.207L254 582.207L247.5 615.707L236 642.207L217.5 654.707H194.5L176.5 647.207L169 629.707L158.5 625.207L141 642.207L126 647.207Z" stroke="black"/>
<path id="SkullEyeR" d="M75 495.707L78 512.707L98.5 525.707L125 533.207H138.5L164 525.707L177.5 507.207L190 488.707L202 475.207L212 459.707L224 450.207L235.5 437.707L247 423.707L253.5 405.707V382.207L242.5 357.707L224.5 336.207L196 321.707L162 325.707L128.5 339.707L109.5 360.707L98.5 390.207L91 423.707L78 462.207L75 495.707Z" stroke="black"/>
<path id="Teeth" d="M28 855.707L21.5 859.707H12H6L3.5 851.207L5 840.207L11 825.207L20.5 804.707L31 783.707L33.5 775.707L38.5 773.207L42.5 783.707L47 798.707M28 855.707L33 859.707L42.5 863.207H56.5L68.5 857.207M28 855.707V843.707L33 830.707L41.5 813.207L47 798.707M68.5 857.207L83 866.707L101.5 869.707H120.5L132.5 866.707M68.5 857.207V848.207L74 837.707L83 823.707L89.5 813.207L92 804.707M132.5 866.707L144.5 872.707H155L171 876.207L190 874.707L202 871.207M132.5 866.707L136 851.207L139 840.207L144.5 825.207V809.207M202 871.207L209.5 872.707L216 881.207L230.5 886.707H246L259 881.207M202 871.207L204.5 857.207L209.5 837.707L213.5 825.207V809.207M259 881.207L263 886.707L272.5 894.707L292.5 902.707L306 908.707L312.5 912.207L318 907.207L325 904.207L330 901.207M259 881.207L263 876.207L268 863.707L272.5 848.707L275.5 830.707M330 901.207L332 907.207L341.5 912.207L350.5 917.707L367.5 920.207L387 925.207H398.5M330 901.207L332 894.707V883.707V868.207L334.5 852.707M398.5 925.207L405 931.207H418.5L430.5 934.207L441.5 936.207H446.5M398.5 925.207L397 910.707L394 897.207L391.5 883.707V871.707M446.5 936.207L455.5 938.707H465.5L474 941.207L479 938.707M446.5 936.207V925.207L444.5 910.707L441.5 897.207L438.5 885.207V877.207M479 938.707L487.5 941.207L493 936.207V925.207L490.5 908.707L487.5 891.707L485.5 874.207H479L474 881.207L469.5 885.207M479 938.707V928.207L477 917.707L474 901.207L469.5 885.207M469.5 885.207L465.5 874.207L455.5 869.207L444.5 871.707L438.5 877.207M438.5 877.207L430.5 867.207L418.5 864.707H405L391.5 871.707M391.5 871.707L378 855.707L363.5 846.207L350.5 848.707L334.5 852.707M334.5 852.707L325 836.707L312.5 830.707L295.5 828.207L275.5 830.707M275.5 830.707L265.5 818.707L248.5 804.707L230.5 801.207L213.5 809.207M213.5 809.207L198.5 798.707L183.5 789.707H167L155 796.207L144.5 809.207M144.5 809.207L132.5 793.207L120.5 779.207H109L97.5 789.707L92 804.707M92 804.707L83 787.207L72.5 779.207L62 775.707L53 787.207L47 798.707" stroke="black"/>
</g>
</svg>
