<svg width="193" height="47" viewBox="0 0 193 47" fill="none" xmlns="http://www.w3.org/2000/svg">
<path id="Density" d="M2.562 35.6158C1.778 35.6158 1.148 35.4478 0.672004 35.1118C0.224003 34.7758 3.45707e-06 34.3278 3.45707e-06 33.7678C3.45707e-06 33.2638 0.0980034 32.8858 0.294003 32.6338C0.490003 32.3538 0.812003 32.0458 1.26 31.7098C1.68 31.4018 2.03 31.1218 2.31 30.8698C2.618 30.6178 2.926 30.2818 3.234 29.8618C3.71 29.2178 4.046 28.2098 4.242 26.8378C4.438 25.4658 4.536 23.7858 4.536 21.7978V17.7238C4.536 15.7358 4.438 14.0558 4.242 12.6838C4.046 11.3118 3.71 10.3038 3.234 9.65976C2.842 9.15576 2.254 8.51176 1.47 7.72776C1.078 7.33576 0.798003 7.04176 0.630003 6.84576C0.490003 6.62176 0.420003 6.31376 0.420003 5.92176C0.420003 5.30576 0.644003 4.81576 1.092 4.45176C1.568 4.08776 2.198 3.90576 2.982 3.90576C3.374 3.90576 3.738 3.91976 4.074 3.94776C4.438 3.97576 4.774 4.00376 5.082 4.03176C6.146 4.17176 7.126 4.24176 8.022 4.24176C9.226 4.24176 10.388 4.17176 11.508 4.03176C12.628 3.89176 13.3 3.80776 13.524 3.77976C15.876 3.44376 17.822 3.27576 19.362 3.27576C22.442 3.27576 25.228 3.97576 27.72 5.37576C30.24 6.77576 32.214 8.72176 33.642 11.2138C35.07 13.7058 35.784 16.5478 35.784 19.7398C35.784 23.4358 34.986 26.4598 33.39 28.8118C31.822 31.1638 29.722 32.8578 27.09 33.8938C24.486 34.9298 21.574 35.4478 18.354 35.4478C17.206 35.4478 15.792 35.3498 14.112 35.1538C12.348 34.9298 10.724 34.8178 9.24 34.8178C8.232 34.8178 7.406 34.8598 6.762 34.9438C6.118 35.0278 5.362 35.1538 4.494 35.3218C3.654 35.5178 3.01 35.6158 2.562 35.6158ZM17.892 31.5838C18.48 31.6678 19.054 31.7098 19.614 31.7098C21.462 31.7098 23.072 31.2898 24.444 30.4498C25.816 29.6098 26.866 28.4758 27.594 27.0478C28.322 25.5918 28.686 24.0098 28.686 22.3018C28.686 19.8378 28.21 17.4578 27.258 15.1618C26.306 12.8378 24.948 10.9478 23.184 9.49176C21.42 8.03576 19.376 7.30776 17.052 7.30776C14.84 7.30776 13.202 8.02176 12.138 9.44976C11.074 10.8498 10.542 13.1878 10.542 16.4638C10.542 19.7678 10.78 22.4838 11.256 24.6118C11.732 26.7118 12.502 28.3358 13.566 29.4838C14.658 30.6318 16.1 31.3318 17.892 31.5838ZM51.5616 36.0358C49.3216 36.0358 47.2636 35.5038 45.3876 34.4398C43.5396 33.3758 42.0696 31.9198 40.9776 30.0718C39.9136 28.1958 39.3816 26.1098 39.3816 23.8138C39.3816 21.6018 39.9276 19.5718 41.0196 17.7238C42.1116 15.8478 43.5816 14.3638 45.4296 13.2718C47.3056 12.1798 49.3496 11.6338 51.5616 11.6338C54.4456 11.6338 56.6856 12.3618 58.2816 13.8178C59.8776 15.2738 60.6756 17.4718 60.6756 20.4118C60.6756 21.2518 60.5776 21.8678 60.3816 22.2598C60.1856 22.6238 59.8636 22.8758 59.4156 23.0158C58.9676 23.1558 58.2536 23.2538 57.2736 23.3098L46.4796 24.0658C46.7316 24.8498 46.9976 25.4798 47.2776 25.9558C48.0616 27.4398 49.1256 28.5318 50.4696 29.2318C51.8416 29.9038 53.2976 30.2398 54.8376 30.2398C55.9576 30.2398 57.0216 30.0858 58.0296 29.7778C59.0376 29.4418 59.8636 29.0078 60.5076 28.4758C61.0116 27.9998 61.4316 27.7618 61.7676 27.7618C61.9076 27.7618 62.0756 27.8318 62.2716 27.9718C62.5796 28.1958 62.7336 28.4478 62.7336 28.7278C62.7336 29.0078 62.5796 29.4138 62.2716 29.9458C61.1796 31.9338 59.6956 33.4458 57.8196 34.4818C55.9436 35.5178 53.8576 36.0358 51.5616 36.0358ZM54.1236 19.4038C54.1236 18.0318 53.7596 16.9118 53.0316 16.0438C52.3316 15.1758 51.4496 14.7418 50.3856 14.7418C49.6296 14.7418 48.8736 14.9798 48.1176 15.4558C47.3896 15.9038 46.8296 16.5898 46.4376 17.5138C46.0456 18.4378 45.8636 19.4878 45.8916 20.6638L54.1236 19.4038ZM67.5659 35.7418C66.8099 35.7418 66.1939 35.5598 65.7179 35.1958C65.2419 34.8038 65.0039 34.3278 65.0039 33.7678C65.0039 33.2078 65.0879 32.8018 65.2559 32.5498C65.4519 32.2698 65.7739 31.9478 66.2219 31.5838C66.9219 30.9958 67.4539 30.4638 67.8179 29.9878C68.6859 28.8398 69.1199 26.1238 69.1199 21.8398C69.1199 20.8878 68.9939 20.1458 68.7419 19.6138C68.5179 19.0818 68.2239 18.7178 67.8599 18.5218C67.5239 18.2978 67.0759 18.0878 66.5159 17.8918C66.0399 17.7238 65.6619 17.5558 65.3819 17.3878C65.1019 17.2198 64.8639 16.9818 64.6679 16.6738C64.4999 16.3658 64.4159 16.0858 64.4159 15.8338C64.4159 15.2178 64.7519 14.6578 65.4239 14.1538C65.8719 13.8178 66.4739 13.4818 67.2299 13.1458C67.3979 13.0618 67.6639 12.9218 68.0279 12.7258C68.4199 12.5298 68.7699 12.3338 69.0779 12.1378C69.6099 11.8018 70.1139 11.4518 70.5899 11.0878C71.0659 10.6958 71.5699 10.2618 72.1019 9.78576C72.6899 9.28176 73.2779 9.02976 73.8659 9.02976C74.4819 9.02976 74.9859 9.29576 75.3779 9.82776C75.5459 10.0798 75.6299 10.4158 75.6299 10.8358C75.6299 11.1998 75.5879 11.7038 75.5039 12.3478C75.4759 12.5718 75.4199 13.1178 75.3359 13.9858C75.2799 14.8538 75.2519 15.8618 75.2519 17.0098C76.2319 15.1898 77.5199 13.8178 79.1159 12.8938C80.7119 11.9418 82.5599 11.4658 84.6599 11.4658C86.9839 11.4658 88.8179 12.1378 90.1619 13.4818C91.5059 14.7978 92.1779 16.7158 92.1779 19.2358C92.1779 20.0198 92.1219 20.7478 92.0099 21.4198C91.7019 23.6598 91.5479 25.3118 91.5479 26.3758C91.5479 27.4398 91.6739 28.2938 91.9259 28.9378C92.2059 29.5818 92.6539 30.2118 93.2699 30.8278C93.9139 31.4718 94.3199 31.9898 94.4879 32.3818C94.6839 32.7738 94.7539 33.2778 94.6979 33.8938C94.6419 34.4538 94.3899 34.9018 93.9419 35.2378C93.4939 35.5738 92.8919 35.7418 92.1359 35.7418C91.5759 35.7418 90.7359 35.6858 89.6159 35.5738C88.4399 35.4618 87.5299 35.4058 86.8859 35.4058C86.3259 35.4058 85.6819 35.4618 84.9539 35.5738C84.2819 35.6858 83.6659 35.7418 83.1059 35.7418C81.6779 35.7418 80.9639 35.0978 80.9639 33.8098C80.9639 33.4458 81.0479 33.1098 81.2159 32.8018C81.4119 32.4938 81.7059 32.1018 82.0979 31.6258C82.7699 30.8418 83.3579 30.0298 83.8619 29.1898C84.3939 28.3498 84.8979 27.2158 85.3739 25.7878C85.7099 24.7798 85.8779 23.8138 85.8779 22.8898C85.8779 21.7418 85.6539 20.6918 85.2059 19.7398C84.7579 18.7598 84.1419 17.9898 83.3579 17.4298C82.6019 16.8698 81.7619 16.5898 80.8379 16.5898C80.1659 16.5898 79.5359 16.7298 78.9479 17.0098C77.6599 17.5418 76.6799 18.4518 76.0079 19.7398C75.3639 21.0278 75.0419 22.4838 75.0419 24.1078C75.0419 26.1798 75.5459 28.1398 76.5539 29.9878C77.1139 30.9678 77.5059 31.7238 77.7299 32.2558C77.9819 32.7878 78.1079 33.2778 78.1079 33.7258C78.1079 34.3138 77.8979 34.8038 77.4779 35.1958C77.0579 35.5598 76.5539 35.7418 75.9659 35.7418C75.7139 35.7418 75.4339 35.7278 75.1259 35.6998C74.8179 35.6718 74.5799 35.6438 74.4119 35.6158C73.7679 35.4758 73.0259 35.4058 72.1859 35.4058C71.6539 35.4058 70.9679 35.4618 70.1279 35.5738C69.1759 35.6858 68.3219 35.7418 67.5659 35.7418ZM108.427 36.0358C106.691 36.0358 105.151 35.9658 103.807 35.8258C102.491 35.6858 101.147 35.4338 99.7746 35.0698C99.2706 34.9298 98.9206 34.7478 98.7246 34.5238C98.5286 34.2718 98.4446 33.9218 98.4726 33.4738C98.5846 32.5218 98.6126 31.4298 98.5566 30.1978C98.5566 29.9738 98.5286 29.7358 98.4726 29.4838C98.4446 29.2038 98.4306 28.9938 98.4306 28.8538C98.3466 28.4338 98.3046 28.0558 98.3046 27.7198C98.3046 27.1038 98.5566 26.6838 99.0606 26.4598C99.1726 26.4038 99.3266 26.3758 99.5226 26.3758C99.8866 26.3758 100.237 26.5438 100.573 26.8798C100.937 27.2158 101.343 27.7058 101.791 28.3498L102.295 29.0638C102.939 29.9318 103.933 30.7018 105.277 31.3738C106.649 32.0458 108.021 32.3818 109.393 32.3818C111.885 32.3818 113.131 31.7798 113.131 30.5758C113.131 30.0438 112.683 29.5818 111.787 29.1898C110.891 28.7698 109.225 28.1818 106.789 27.4258C103.961 26.5578 101.833 25.4518 100.405 24.1078C99.0046 22.7638 98.3046 21.0558 98.3046 18.9838C98.3046 17.2758 98.8506 15.8758 99.9426 14.7838C101.035 13.6918 102.379 12.9078 103.975 12.4318C105.599 11.9278 107.251 11.6758 108.931 11.6758C110.219 11.6758 111.689 11.8298 113.341 12.1378C114.377 12.3338 115.189 12.4318 115.777 12.4318C116.701 12.4318 117.303 12.4738 117.583 12.5578C117.891 12.6138 118.045 12.8518 118.045 13.2718C118.045 13.4398 118.017 13.8598 117.961 14.5318C117.933 15.2038 117.933 16.0578 117.961 17.0938C117.961 17.3178 117.975 17.5698 118.003 17.8498C118.059 18.1018 118.087 18.2978 118.087 18.4378C118.171 18.8858 118.213 19.2918 118.213 19.6558C118.213 20.3558 117.961 20.8178 117.457 21.0418C117.345 21.0978 117.191 21.1258 116.995 21.1258C116.575 21.1258 116.169 20.9158 115.777 20.4958C115.413 20.0758 115.077 19.6278 114.769 19.1518C114.489 18.6758 114.307 18.3678 114.223 18.2278C113.635 17.2758 112.781 16.5198 111.661 15.9598C110.541 15.3718 109.393 15.0778 108.217 15.0778C105.977 15.0778 104.857 15.7778 104.857 17.1778C104.857 17.8218 105.249 18.3958 106.033 18.8998C106.845 19.3758 108.259 19.9078 110.275 20.4958C113.439 21.4478 115.791 22.5678 117.331 23.8558C118.871 25.1158 119.641 26.7958 119.641 28.8958C119.641 30.3798 119.151 31.6678 118.171 32.7598C117.191 33.8238 115.847 34.6358 114.139 35.1958C112.459 35.7558 110.555 36.0358 108.427 36.0358ZM125.343 35.7418C124.587 35.7418 123.971 35.5598 123.495 35.1958C123.019 34.8038 122.781 34.3278 122.781 33.7678C122.781 33.2638 122.907 32.8718 123.159 32.5918C123.411 32.3118 123.817 32.0178 124.377 31.7098C124.489 31.6538 124.769 31.4858 125.217 31.2058C125.665 30.8978 126.071 30.4918 126.435 29.9878C126.939 29.3158 127.275 28.5598 127.443 27.7198C127.639 26.8798 127.737 25.7598 127.737 24.3598C127.737 23.3238 127.625 22.5118 127.401 21.9238C127.177 21.3358 126.911 20.9018 126.603 20.6218C126.295 20.3418 125.875 20.0758 125.343 19.8238C124.923 19.5998 124.587 19.4038 124.335 19.2358C124.111 19.0678 123.901 18.8298 123.705 18.5218C123.537 18.2138 123.453 17.9338 123.453 17.6818C123.453 17.0658 123.789 16.5058 124.461 16.0018C124.741 15.7778 125.455 15.3858 126.603 14.8258C127.639 14.3498 128.521 13.9018 129.249 13.4818C130.985 12.4458 132.231 11.9278 132.987 11.9278C133.463 11.9278 133.925 12.1238 134.373 12.5158C134.849 12.9638 135.087 13.6358 135.087 14.5318C135.087 15.2318 134.947 16.1418 134.667 17.2618C134.359 18.4658 134.149 19.4318 134.037 20.1598C133.925 20.8598 133.869 21.9098 133.869 23.3098C133.869 25.2698 133.953 26.6978 134.121 27.5938C134.289 28.4898 134.639 29.2878 135.171 29.9878C135.367 30.2398 135.787 30.6598 136.431 31.2478C136.935 31.6958 137.299 32.0738 137.523 32.3818C137.747 32.6898 137.859 33.0538 137.859 33.4738C137.859 34.1738 137.621 34.7338 137.145 35.1538C136.669 35.5458 136.095 35.7418 135.423 35.7418C135.031 35.7418 134.681 35.7278 134.373 35.6998C134.065 35.6718 133.785 35.6438 133.533 35.6158C132.609 35.4758 131.699 35.4058 130.803 35.4058C130.271 35.4058 129.445 35.4618 128.325 35.5738C127.149 35.6858 126.155 35.7418 125.343 35.7418ZM130.845 8.94576C129.613 8.94576 128.549 8.51176 127.653 7.64376C126.785 6.74776 126.351 5.68376 126.351 4.45176C126.351 3.21976 126.785 2.16976 127.653 1.30176C128.549 0.43376 129.613 -0.000240564 130.845 -0.000240564C132.105 -0.000240564 133.169 0.43376 134.037 1.30176C134.933 2.16976 135.381 3.21976 135.381 4.45176C135.381 5.68376 134.933 6.74776 134.037 7.64376C133.169 8.51176 132.105 8.94576 130.845 8.94576ZM151.906 36.0358C150.226 36.0358 148.756 35.5178 147.496 34.4818C146.236 33.4178 145.284 31.9618 144.64 30.1138C143.996 28.2378 143.744 26.1378 143.884 23.8138C143.94 22.8058 143.968 22.1478 143.968 21.8398C143.968 20.4678 143.856 19.4318 143.632 18.7318C143.436 18.0318 143.184 17.5838 142.876 17.3878C142.568 17.1638 142.162 16.9958 141.658 16.8838C141.294 16.7998 141 16.7018 140.776 16.5898C140.58 16.4778 140.398 16.2958 140.23 16.0438C140.062 15.7358 139.978 15.4558 139.978 15.2038C139.978 14.5878 140.314 14.0278 140.986 13.5238C141.378 13.2158 141.84 12.9218 142.372 12.6418C143.716 11.8018 144.71 11.1158 145.354 10.5838C145.802 10.2198 146.348 9.68776 146.992 8.98776C147.552 8.39976 148.014 7.96576 148.378 7.68576C148.77 7.37776 149.162 7.22376 149.554 7.22376C149.806 7.22376 150.044 7.27976 150.268 7.39176C150.884 7.72776 151.192 8.32976 151.192 9.19776C151.192 9.70176 151.094 10.4438 150.898 11.4238C150.674 12.7118 150.576 13.2858 150.604 13.1458L159.802 12.8938C160.754 12.8658 161.23 13.1458 161.23 13.7338C161.23 13.9018 161.16 14.1538 161.02 14.4898C160.936 14.6578 160.684 15.1618 160.264 16.0018C159.872 16.8138 159.312 17.3598 158.584 17.6398C157.884 17.9198 156.974 18.0178 155.854 17.9338L150.184 17.5138C150.072 19.4738 150.016 20.6358 150.016 20.9998C150.016 22.8758 150.24 24.5138 150.688 25.9138C151.136 27.3138 151.752 28.3918 152.536 29.1478C153.32 29.9038 154.216 30.2818 155.224 30.2818C156.316 30.2818 157.212 30.1418 157.912 29.8618C158.612 29.5538 159.312 29.0918 160.012 28.4758C160.516 27.9998 160.936 27.7618 161.272 27.7618C161.412 27.7618 161.58 27.8318 161.776 27.9718C162.084 28.1958 162.238 28.4478 162.238 28.7278C162.238 29.0078 162.084 29.4138 161.776 29.9458C160.712 31.9338 159.326 33.4458 157.618 34.4818C155.91 35.5178 154.006 36.0358 151.906 36.0358ZM174.258 46.2838C173.838 46.2838 173.404 46.1718 172.956 45.9478C172.508 45.7238 171.99 45.3878 171.402 44.9398C170.562 44.3518 170.016 44.0018 169.764 43.8898C169.148 43.6098 168.476 43.3298 167.748 43.0498L165.564 42.0838C164.64 41.6078 164.178 41.0198 164.178 40.3198C164.178 39.7038 164.346 39.2978 164.682 39.1018C165.046 38.9338 165.48 38.8218 165.984 38.7658C166.488 38.7378 166.852 38.7098 167.076 38.6818C168.56 38.5138 169.848 38.1918 170.94 37.7158C172.032 37.2398 172.914 36.5118 173.586 35.5318L174.972 33.5578L170.226 25.0318C169.834 24.3598 169.554 23.8558 169.386 23.5198C168.07 21.2238 167.118 19.5858 166.53 18.6058C165.942 17.6258 165.396 16.8418 164.892 16.2538C164.5 15.8058 164.01 15.3438 163.422 14.8678C163.058 14.5878 162.806 14.3638 162.666 14.1958C162.526 14.0278 162.456 13.8038 162.456 13.5238C162.456 13.0758 162.624 12.7258 162.96 12.4738C163.296 12.1938 163.744 12.0538 164.304 12.0538L166.068 12.1378C167.356 12.2498 168.392 12.3058 169.176 12.3058C169.82 12.3058 170.408 12.2918 170.94 12.2638C171.472 12.2358 171.92 12.2078 172.284 12.1798C173.18 12.0958 173.922 12.0538 174.51 12.0538C175.07 12.0538 175.518 12.1938 175.854 12.4738C176.218 12.7258 176.4 13.0758 176.4 13.5238C176.4 13.7478 176.33 13.9438 176.19 14.1118C176.05 14.2518 175.826 14.4338 175.518 14.6578C175.462 14.6858 175.28 14.8258 174.972 15.0778C174.664 15.3298 174.44 15.6378 174.3 16.0018C174.216 16.1978 174.174 16.4218 174.174 16.6738C174.174 17.2898 174.398 18.0598 174.846 18.9838C175.322 19.9078 176.204 21.4618 177.492 23.6458L179.13 26.4178L180.39 24.0658C181.538 21.9378 182.322 20.3698 182.742 19.3618C183.19 18.3538 183.414 17.5558 183.414 16.9678C183.414 16.6038 183.358 16.2958 183.246 16.0438C183.106 15.7358 182.938 15.4978 182.742 15.3298C182.546 15.1338 182.266 14.8958 181.902 14.6158C181.594 14.3918 181.356 14.2098 181.188 14.0698C181.048 13.9018 180.978 13.7198 180.978 13.5238C180.978 13.0758 181.132 12.7258 181.44 12.4738C181.776 12.1938 182.224 12.0538 182.784 12.0538C183.288 12.0538 183.932 12.0958 184.716 12.1798C185.024 12.2078 185.388 12.2358 185.808 12.2638C186.256 12.2918 186.732 12.3058 187.236 12.3058C187.544 12.3058 187.866 12.2918 188.202 12.2638C188.538 12.2078 188.79 12.1798 188.958 12.1798C189.462 12.0958 189.994 12.0538 190.554 12.0538C191.114 12.0538 191.562 12.1938 191.898 12.4738C192.262 12.7258 192.444 13.0758 192.444 13.5238C192.444 13.7758 192.374 13.9858 192.234 14.1538C192.094 14.3218 191.87 14.5318 191.562 14.7838C190.974 15.2598 190.484 15.7358 190.092 16.2118C188.496 18.1718 186.62 21.1118 184.464 25.0318L181.062 31.2058L179.718 34.1038C177.926 37.8838 176.442 41.3698 175.266 44.5618C174.986 45.3458 174.79 45.8218 174.678 45.9898C174.594 46.1858 174.454 46.2838 174.258 46.2838Z" fill="black"/>
</svg>
