<svg width="101" height="36" viewBox="0 0 101 36" fill="none" xmlns="http://www.w3.org/2000/svg">
<path id="Dial" d="M2.562 35.6158C1.778 35.6158 1.148 35.4478 0.672004 35.1118C0.224003 34.7758 3.45707e-06 34.3278 3.45707e-06 33.7678C3.45707e-06 33.2638 0.0980034 32.8858 0.294003 32.6338C0.490003 32.3538 0.812003 32.0458 1.26 31.7098C1.68 31.4018 2.03 31.1218 2.31 30.8698C2.618 30.6178 2.926 30.2818 3.234 29.8618C3.71 29.2178 4.046 28.2098 4.242 26.8378C4.438 25.4658 4.536 23.7858 4.536 21.7978V17.7238C4.536 15.7358 4.438 14.0558 4.242 12.6838C4.046 11.3118 3.71 10.3038 3.234 9.65976C2.842 9.15576 2.254 8.51176 1.47 7.72776C1.078 7.33576 0.798003 7.04176 0.630003 6.84576C0.490003 6.62176 0.420003 6.31376 0.420003 5.92176C0.420003 5.30576 0.644003 4.81576 1.092 4.45176C1.568 4.08776 2.198 3.90576 2.982 3.90576C3.374 3.90576 3.738 3.91976 4.074 3.94776C4.438 3.97576 4.774 4.00376 5.082 4.03176C6.146 4.17176 7.126 4.24176 8.022 4.24176C9.226 4.24176 10.388 4.17176 11.508 4.03176C12.628 3.89176 13.3 3.80776 13.524 3.77976C15.876 3.44376 17.822 3.27576 19.362 3.27576C22.442 3.27576 25.228 3.97576 27.72 5.37576C30.24 6.77576 32.214 8.72176 33.642 11.2138C35.07 13.7058 35.784 16.5478 35.784 19.7398C35.784 23.4358 34.986 26.4598 33.39 28.8118C31.822 31.1638 29.722 32.8578 27.09 33.8938C24.486 34.9298 21.574 35.4478 18.354 35.4478C17.206 35.4478 15.792 35.3498 14.112 35.1538C12.348 34.9298 10.724 34.8178 9.24 34.8178C8.232 34.8178 7.406 34.8598 6.762 34.9438C6.118 35.0278 5.362 35.1538 4.494 35.3218C3.654 35.5178 3.01 35.6158 2.562 35.6158ZM17.892 31.5838C18.48 31.6678 19.054 31.7098 19.614 31.7098C21.462 31.7098 23.072 31.2898 24.444 30.4498C25.816 29.6098 26.866 28.4758 27.594 27.0478C28.322 25.5918 28.686 24.0098 28.686 22.3018C28.686 19.8378 28.21 17.4578 27.258 15.1618C26.306 12.8378 24.948 10.9478 23.184 9.49176C21.42 8.03576 19.376 7.30776 17.052 7.30776C14.84 7.30776 13.202 8.02176 12.138 9.44976C11.074 10.8498 10.542 13.1878 10.542 16.4638C10.542 19.7678 10.78 22.4838 11.256 24.6118C11.732 26.7118 12.502 28.3358 13.566 29.4838C14.658 30.6318 16.1 31.3318 17.892 31.5838ZM41.7122 35.7418C40.9562 35.7418 40.3402 35.5598 39.8642 35.1958C39.3882 34.8038 39.1502 34.3278 39.1502 33.7678C39.1502 33.2638 39.2762 32.8718 39.5282 32.5918C39.7802 32.3118 40.1862 32.0178 40.7462 31.7098C40.8582 31.6538 41.1382 31.4858 41.5862 31.2058C42.0342 30.8978 42.4402 30.4918 42.8042 29.9878C43.3082 29.3158 43.6442 28.5598 43.8122 27.7198C44.0082 26.8798 44.1062 25.7598 44.1062 24.3598C44.1062 23.3238 43.9942 22.5118 43.7702 21.9238C43.5462 21.3358 43.2802 20.9018 42.9722 20.6218C42.6642 20.3418 42.2442 20.0758 41.7122 19.8238C41.2922 19.5998 40.9562 19.4038 40.7042 19.2358C40.4802 19.0678 40.2702 18.8298 40.0742 18.5218C39.9062 18.2138 39.8222 17.9338 39.8222 17.6818C39.8222 17.0658 40.1582 16.5058 40.8302 16.0018C41.1102 15.7778 41.8242 15.3858 42.9722 14.8258C44.0082 14.3498 44.8902 13.9018 45.6182 13.4818C47.3542 12.4458 48.6002 11.9278 49.3562 11.9278C49.8322 11.9278 50.2942 12.1238 50.7422 12.5158C51.2182 12.9638 51.4562 13.6358 51.4562 14.5318C51.4562 15.2318 51.3162 16.1418 51.0362 17.2618C50.7282 18.4658 50.5182 19.4318 50.4062 20.1598C50.2942 20.8598 50.2382 21.9098 50.2382 23.3098C50.2382 25.2698 50.3222 26.6978 50.4902 27.5938C50.6582 28.4898 51.0082 29.2878 51.5402 29.9878C51.7362 30.2398 52.1562 30.6598 52.8002 31.2478C53.3042 31.6958 53.6682 32.0738 53.8922 32.3818C54.1162 32.6898 54.2282 33.0538 54.2282 33.4738C54.2282 34.1738 53.9902 34.7338 53.5142 35.1538C53.0382 35.5458 52.4642 35.7418 51.7922 35.7418C51.4002 35.7418 51.0502 35.7278 50.7422 35.6998C50.4342 35.6718 50.1542 35.6438 49.9022 35.6158C48.9782 35.4758 48.0682 35.4058 47.1722 35.4058C46.6402 35.4058 45.8142 35.4618 44.6942 35.5738C43.5182 35.6858 42.5242 35.7418 41.7122 35.7418ZM47.2142 8.94576C45.9822 8.94576 44.9182 8.51176 44.0222 7.64376C43.1542 6.74776 42.7202 5.68376 42.7202 4.45176C42.7202 3.21976 43.1542 2.16976 44.0222 1.30176C44.9182 0.43376 45.9822 -0.000240564 47.2142 -0.000240564C48.4742 -0.000240564 49.5382 0.43376 50.4062 1.30176C51.3022 2.16976 51.7502 3.21976 51.7502 4.45176C51.7502 5.68376 51.3022 6.74776 50.4062 7.64376C49.5382 8.51176 48.4742 8.94576 47.2142 8.94576ZM79.7833 35.6998C78.3553 35.6998 77.0113 35.0978 75.7513 33.8938C74.4913 32.6898 73.5533 30.9678 72.9373 28.7278C72.0133 30.1558 70.8793 31.4158 69.5353 32.5078C68.2193 33.5998 66.8613 34.4538 65.4613 35.0698C64.0613 35.6578 62.7873 35.9518 61.6393 35.9518C60.6313 35.9518 59.8473 35.7278 59.2873 35.2798C58.1673 34.4398 57.6073 33.1518 57.6073 31.4158C57.6073 29.9038 58.0273 28.2518 58.8673 26.4598C59.7073 24.6398 60.9113 22.8898 62.4793 21.2098C64.0753 19.5018 65.9093 18.0738 67.9813 16.9258C66.7773 16.4218 65.2093 16.1698 63.2773 16.1698L61.8073 16.2118C61.5553 16.2398 61.1773 16.2538 60.6733 16.2538C59.8613 16.2538 59.2733 16.0858 58.9093 15.7498C58.5453 15.4138 58.4193 14.9798 58.5313 14.4478C58.6153 13.9438 58.9933 13.4538 59.6653 12.9778C60.3373 12.4738 61.2613 12.0678 62.4373 11.7598C63.6133 11.4238 64.9433 11.2558 66.4273 11.2558C67.9953 11.2558 69.3533 11.4518 70.5013 11.8438C71.6773 12.2078 72.7973 12.7958 73.8613 13.6078C76.0453 12.5718 77.7113 12.0538 78.8593 12.0538C79.4753 12.0538 79.9233 12.1938 80.2033 12.4738C80.5393 12.8098 80.7073 13.1598 80.7073 13.5238C80.7073 13.8318 80.6093 14.1538 80.4133 14.4898C80.2173 14.8258 79.9233 15.2458 79.5313 15.7498C79.3913 15.9458 79.2093 16.2118 78.9853 16.5478C78.7613 16.8558 78.5653 17.1358 78.3973 17.3878C77.7813 18.3678 77.4733 19.3338 77.4733 20.2858C77.4733 20.9018 77.5853 21.5878 77.8093 22.3438C78.0333 23.0718 78.3833 23.9958 78.8593 25.1158C79.2513 26.0678 79.6853 26.9078 80.1613 27.6358C80.6373 28.3638 81.1973 29.1618 81.8413 30.0298C82.3453 30.7578 82.6953 31.3038 82.8913 31.6678C83.1153 32.0038 83.2273 32.3258 83.2273 32.6338C83.2273 33.3618 82.8633 34.0618 82.1353 34.7338C81.4353 35.3778 80.6513 35.6998 79.7833 35.6998ZM65.7133 28.5598C65.9933 28.7558 66.3293 28.8538 66.7213 28.8538C67.2533 28.8538 67.8273 28.6438 68.4433 28.2238C69.0593 27.8038 69.6753 27.1738 70.2913 26.3338C71.1593 25.1298 71.5933 23.7718 71.5933 22.2598C71.5933 21.1958 71.3693 20.2578 70.9213 19.4458C69.6053 20.3418 68.3033 21.5878 67.0153 23.1838C65.7273 24.7798 65.0833 26.1238 65.0833 27.2158C65.0833 27.8038 65.2933 28.2518 65.7133 28.5598ZM88.096 35.6158C87.312 35.6158 86.682 35.4478 86.206 35.1118C85.758 34.7758 85.534 34.3278 85.534 33.7678C85.534 33.2638 85.632 32.8858 85.828 32.6338C86.024 32.3538 86.346 32.0458 86.794 31.7098C87.214 31.4018 87.564 31.1218 87.844 30.8698C88.152 30.6178 88.46 30.2818 88.768 29.8618C89.244 29.2178 89.58 28.2098 89.776 26.8378C89.972 25.4658 90.07 23.7858 90.07 21.7978V16.7998C90.07 14.8118 89.93 13.2578 89.65 12.1378C89.37 11.0178 89.034 10.2198 88.642 9.74376C88.278 9.23976 87.802 8.77776 87.214 8.35776C86.906 8.16176 86.654 7.99376 86.458 7.85376C86.29 7.68576 86.136 7.47576 85.996 7.22376C85.828 6.91576 85.744 6.63576 85.744 6.38376C85.744 5.76776 86.08 5.20776 86.752 4.70376C87.032 4.47976 87.746 4.08776 88.894 3.52776C89.93 3.05176 90.812 2.60376 91.54 2.18376C93.276 1.14776 94.522 0.629759 95.278 0.629759C95.754 0.629759 96.216 0.82576 96.664 1.21776C97.14 1.66576 97.378 2.33776 97.378 3.23376C97.378 3.93376 97.238 4.84376 96.958 5.96376C96.678 7.05576 96.482 8.23176 96.37 9.49176C96.258 10.7518 96.202 13.1178 96.202 16.5898V21.7978C96.202 23.7858 96.3 25.4658 96.496 26.8378C96.692 28.2098 97.028 29.2178 97.504 29.8618C97.812 30.2818 98.106 30.6178 98.386 30.8698C98.694 31.1218 99.058 31.4018 99.478 31.7098C99.926 32.0458 100.248 32.3538 100.444 32.6338C100.64 32.8858 100.738 33.2638 100.738 33.7678C100.738 34.3278 100.5 34.7758 100.024 35.1118C99.576 35.4478 98.96 35.6158 98.176 35.6158C97.616 35.6158 96.804 35.5598 95.74 35.4478C94.62 35.3358 93.752 35.2798 93.136 35.2798C92.576 35.2798 91.82 35.3358 90.868 35.4478C89.804 35.5598 88.88 35.6158 88.096 35.6158Z" fill="black"/>
</svg>