<svg width="30" height="12" viewBox="0 0 30 12" fill="none" xmlns="http://www.w3.org/2000/svg">
<path id="The" d="M3.486 11.6481C3.19667 11.6481 2.982 11.5875 2.842 11.4661C2.702 11.3448 2.632 11.2001 2.632 11.0321C2.632 10.8641 2.66467 10.7381 2.73 10.6541C2.79533 10.5608 2.90267 10.4581 3.052 10.3461C3.192 10.2435 3.30867 10.1501 3.402 10.0661C3.50467 9.98212 3.60733 9.87012 3.71 9.73013C3.86867 9.51546 3.98067 9.17946 4.046 8.72212C4.11133 8.26479 4.144 7.70479 4.144 7.04212L4.158 3.90612C4.158 3.11279 3.794 2.71612 3.066 2.71612C2.72067 2.71612 2.42667 2.79546 2.184 2.95412C1.94133 3.10346 1.708 3.38812 1.484 3.80812C1.456 3.86412 1.37667 4.01812 1.246 4.27012C1.11533 4.52212 0.989333 4.69012 0.868 4.77412C0.756 4.84879 0.625333 4.88146 0.476 4.87212C0.308 4.86279 0.186667 4.76012 0.112 4.56412C0.0373333 4.35879 0 4.07412 0 3.71012C0 3.42079 0.0233333 3.05212 0.07 2.60412C0.144667 1.95079 0.284667 1.48879 0.49 1.21812C0.695333 0.947458 0.989333 0.812124 1.372 0.812124C1.55867 0.812124 1.88067 0.863458 2.338 0.966125C2.80467 1.06879 3.248 1.14812 3.668 1.20412C4.09733 1.26012 4.606 1.28812 5.194 1.28812C5.782 1.28812 6.286 1.26012 6.706 1.20412C7.13533 1.14812 7.58333 1.06879 8.05 0.966125C8.51667 0.863458 8.83867 0.812124 9.016 0.812124C9.39867 0.812124 9.69267 0.947458 9.898 1.21812C10.1033 1.48879 10.2433 1.95079 10.318 2.60412C10.3647 3.05212 10.388 3.42079 10.388 3.71012C10.388 4.07412 10.3507 4.35879 10.276 4.56412C10.2013 4.76012 10.08 4.86279 9.912 4.87212C9.76267 4.88146 9.63667 4.85346 9.534 4.78812C9.44067 4.71346 9.35667 4.61546 9.282 4.49412C9.20733 4.37279 9.08133 4.14412 8.904 3.80812C8.67067 3.37879 8.428 3.08946 8.176 2.94012C7.93333 2.79079 7.62533 2.71612 7.252 2.71612C6.53333 2.71612 6.174 3.11279 6.174 3.90612L6.188 7.04212C6.188 7.70479 6.22067 8.26479 6.286 8.72212C6.35133 9.17946 6.46333 9.51546 6.622 9.73013C6.72467 9.87012 6.82267 9.98212 6.916 10.0661C7.01867 10.1501 7.14 10.2435 7.28 10.3461C7.42933 10.4581 7.53667 10.5608 7.602 10.6541C7.66733 10.7381 7.7 10.8641 7.7 11.0321C7.7 11.2001 7.63 11.3448 7.49 11.4661C7.35 11.5875 7.13533 11.6481 6.846 11.6481C6.566 11.6481 6.286 11.6341 6.006 11.6061C5.63267 11.5875 5.35267 11.5781 5.166 11.5781L4.606 11.6061C3.99 11.6341 3.61667 11.6481 3.486 11.6481ZM11.9306 11.6901C11.6693 11.6901 11.4593 11.6341 11.3006 11.5221C11.1513 11.4101 11.0766 11.2608 11.0766 11.0741C11.0766 10.8875 11.1093 10.7428 11.1746 10.6401C11.24 10.5375 11.3473 10.4255 11.4966 10.3041C11.6833 10.1455 11.856 9.96812 12.0146 9.77212C12.1733 9.55746 12.2853 9.22146 12.3506 8.76412C12.416 8.30679 12.4486 7.73746 12.4486 7.05612V5.69812C12.4486 5.20346 12.4393 4.83012 12.4206 4.57812C12.402 4.31679 12.346 4.08812 12.2526 3.89212C12.1686 3.69612 12.0286 3.55146 11.8326 3.45812C11.7673 3.42079 11.6973 3.39279 11.6226 3.37412C11.5573 3.34612 11.5106 3.32746 11.4826 3.31812C11.3613 3.28079 11.2586 3.23879 11.1746 3.19212C11.1 3.14546 11.03 3.06612 10.9646 2.95412C10.9086 2.85146 10.8806 2.75812 10.8806 2.67412C10.8806 2.46879 10.9926 2.28212 11.2166 2.11412C11.2913 2.05812 11.4593 1.95079 11.7206 1.79212C11.9446 1.66146 12.1686 1.51679 12.3926 1.35812C12.5233 1.26479 12.6493 1.15746 12.7706 1.03612C12.892 0.905458 12.976 0.816791 13.0226 0.770125C13.2466 0.527458 13.4333 0.350124 13.5826 0.238124C13.7973 0.0794578 13.998 0.000124693 14.1846 0.000124693C14.39 0.000124693 14.5533 0.0841247 14.6746 0.252125C14.796 0.429458 14.8566 0.611458 14.8566 0.798124C14.8566 0.928791 14.8333 1.07812 14.7866 1.24612C14.7493 1.40479 14.726 1.50279 14.7166 1.54012C14.6233 1.91346 14.5626 2.38946 14.5346 2.96812C14.5066 3.53746 14.4926 4.21412 14.4926 4.99812V5.44612C14.8193 4.83946 15.2486 4.38212 15.7806 4.07412C16.3126 3.75679 16.9286 3.59812 17.6286 3.59812C18.4033 3.59812 19.0146 3.82212 19.4626 4.27012C19.9106 4.70879 20.1346 5.34812 20.1346 6.18812C20.1346 6.44946 20.116 6.69212 20.0786 6.91612C19.976 7.66279 19.9246 8.21346 19.9246 8.56812C19.9246 8.92279 19.9666 9.20746 20.0506 9.42212C20.144 9.63679 20.2933 9.84679 20.4986 10.0521C20.7133 10.2668 20.8486 10.4395 20.9046 10.5701C20.97 10.7008 20.9933 10.8688 20.9746 11.0741C20.956 11.2608 20.872 11.4101 20.7226 11.5221C20.5733 11.6341 20.3726 11.6901 20.1206 11.6901C19.934 11.6901 19.654 11.6715 19.2806 11.6341C18.8886 11.5968 18.5853 11.5781 18.3706 11.5781C18.184 11.5781 17.9693 11.5968 17.7266 11.6341C17.5026 11.6715 17.2973 11.6901 17.1106 11.6901C16.6346 11.6901 16.3966 11.4755 16.3966 11.0461C16.3966 10.9248 16.4246 10.8128 16.4806 10.7101C16.546 10.5981 16.6486 10.4675 16.7886 10.3181C17.0126 10.0381 17.2086 9.76279 17.3766 9.49212C17.5446 9.22146 17.708 8.86212 17.8666 8.41412C17.9786 8.07812 18.0346 7.75612 18.0346 7.44812C18.0346 7.06546 17.96 6.71079 17.8106 6.38412C17.6613 6.05746 17.456 5.80079 17.1946 5.61412C16.9333 5.41812 16.6486 5.32012 16.3406 5.32012C16.1446 5.32012 15.9393 5.36212 15.7246 5.44612C15.2953 5.62346 14.9686 5.92679 14.7446 6.35612C14.53 6.78546 14.4226 7.27079 14.4226 7.81212C14.4226 8.50279 14.5906 9.15612 14.9266 9.77212C15.1133 10.0988 15.244 10.3508 15.3186 10.5281C15.4026 10.7055 15.4446 10.8688 15.4446 11.0181C15.4446 11.2141 15.3746 11.3775 15.2346 11.5081C15.0946 11.6295 14.9266 11.6901 14.7306 11.6901C14.6466 11.6901 14.5533 11.6855 14.4506 11.6761C14.348 11.6668 14.2686 11.6575 14.2126 11.6481C13.998 11.6015 13.7506 11.5781 13.4706 11.5781C13.2933 11.5781 13.0646 11.5968 12.7846 11.6341C12.4673 11.6715 12.1826 11.6901 11.9306 11.6901ZM25.8885 11.7881C25.1418 11.7881 24.4558 11.6108 23.8305 11.2561C23.2145 10.9015 22.7245 10.4161 22.3605 9.80012C22.0058 9.17479 21.8285 8.47946 21.8285 7.71412C21.8285 6.97679 22.0105 6.30012 22.3745 5.68412C22.7385 5.05879 23.2285 4.56412 23.8445 4.20012C24.4698 3.83612 25.1512 3.65412 25.8885 3.65412C26.8498 3.65412 27.5965 3.89679 28.1285 4.38213C28.6605 4.86746 28.9265 5.60012 28.9265 6.58012C28.9265 6.86012 28.8938 7.06546 28.8285 7.19612C28.7632 7.31746 28.6558 7.40146 28.5065 7.44812C28.3572 7.49479 28.1192 7.52746 27.7925 7.54612L24.1945 7.79812C24.2785 8.05946 24.3672 8.26946 24.4605 8.42812C24.7218 8.92279 25.0765 9.28679 25.5245 9.52013C25.9818 9.74412 26.4672 9.85612 26.9805 9.85612C27.3538 9.85612 27.7085 9.80479 28.0445 9.70212C28.3805 9.59012 28.6558 9.44546 28.8705 9.26812C29.0385 9.10946 29.1785 9.03012 29.2905 9.03012C29.3372 9.03012 29.3932 9.05346 29.4585 9.10012C29.5612 9.17479 29.6125 9.25879 29.6125 9.35212C29.6125 9.44546 29.5612 9.58079 29.4585 9.75812C29.0945 10.4208 28.5998 10.9248 27.9745 11.2701C27.3492 11.6155 26.6538 11.7881 25.8885 11.7881ZM26.7425 6.24412C26.7425 5.78679 26.6212 5.41346 26.3785 5.12412C26.1452 4.83479 25.8512 4.69012 25.4965 4.69012C25.2445 4.69012 24.9925 4.76946 24.7405 4.92812C24.4978 5.07746 24.3112 5.30612 24.1805 5.61412C24.0498 5.92212 23.9892 6.27212 23.9985 6.66412L26.7425 6.24412Z" fill="black"/>
</svg>
